# Blender v2.79 (sub 0) OBJ File: 'n64.blend'
# www.blender.org
mtllib n64.mtl
o n64
v -4.000000 0.000000 4.000000
v -4.000000 3.000000 4.000000
v -4.000000 0.000000 2.000000
v -4.000000 3.000000 2.000000
v -2.000000 0.000000 4.000000
v -2.000000 3.000000 4.000000
v -2.000000 0.000000 2.000000
v -2.000000 3.000000 2.000000
v -4.000000 5.000000 4.000000
v -4.000000 5.000000 2.000000
v -2.000000 5.000000 2.000000
v -2.000000 5.000000 4.000000
v -4.000000 8.000000 4.000000
v -4.000000 8.000000 2.000000
v -2.000000 8.000000 2.000000
v -2.000000 8.000000 4.000000
v 2.000000 0.000000 2.000000
v 2.000000 0.000000 4.000000
v 2.000000 3.000000 2.000000
v 2.000000 3.000000 4.000000
v 4.000000 0.000000 2.000000
v 4.000000 0.000000 4.000000
v 4.000000 3.000000 2.000000
v 4.000000 3.000000 4.000000
v 2.000000 5.000000 2.000000
v 2.000000 5.000000 4.000000
v 4.000000 5.000000 2.000000
v 4.000000 5.000000 4.000000
v 2.000000 8.000000 2.000000
v 2.000000 8.000000 4.000000
v 4.000000 8.000000 2.000000
v 4.000000 8.000000 4.000000
v 4.000000 0.000000 -2.000000
v 2.000000 0.000000 -2.000000
v 4.000000 3.000000 -2.000000
v 2.000000 3.000000 -2.000000
v 4.000000 0.000000 -4.000000
v 2.000000 0.000000 -4.000000
v 4.000000 3.000000 -4.000000
v 2.000000 3.000000 -4.000000
v 4.000000 5.000000 -2.000000
v 2.000000 5.000000 -2.000000
v 4.000000 5.000000 -4.000000
v 2.000000 5.000000 -4.000000
v 4.000000 8.000000 -2.000000
v 2.000000 8.000000 -2.000000
v 4.000000 8.000000 -4.000000
v 2.000000 8.000000 -4.000000
v -2.000000 0.000000 -2.000000
v -2.000000 0.000000 -4.000000
v -2.000000 3.000000 -2.000000
v -2.000000 3.000000 -4.000000
v -4.000000 0.000000 -2.000000
v -4.000000 0.000000 -4.000000
v -4.000000 3.000000 -2.000000
v -4.000000 3.000000 -4.000000
v -2.000000 5.000000 -2.000000
v -2.000000 5.000000 -4.000000
v -4.000000 5.000000 -2.000000
v -4.000000 5.000000 -4.000000
v -2.000000 8.000000 -2.000000
v -2.000000 8.000000 -4.000000
v -4.000000 8.000000 -2.000000
v -4.000000 8.000000 -4.000000
vt 0.625000 0.625000
vt 0.875000 0.625000
vt 0.875000 0.875000
vt 0.625000 0.875000
vt 0.625000 0.125000
vt 0.875000 0.125000
vt 0.875000 0.375000
vt 0.625000 0.375000
vt 0.625000 0.625000
vt 0.875000 0.625000
vt 0.875000 0.875000
vt 0.625000 0.875000
vt 0.125000 0.125000
vt 0.375000 0.125000
vt 0.375000 0.375000
vt 0.125000 0.375000
vt 0.125000 0.625000
vt 0.375000 0.625000
vt 0.375000 0.875000
vt 0.125000 0.875000
vt 0.125000 0.125000
vt 0.375000 0.125000
vt 0.375000 0.375000
vt 0.125000 0.375000
vt 0.625000 0.125000
vt 0.875000 0.125000
vt 0.875000 0.375000
vt 0.625000 0.375000
vt 0.625000 0.625000
vt 0.875000 0.875000
vt 0.625000 0.875000
vt 0.625000 0.625000
vt 0.875000 0.875000
vt 0.625000 0.875000
vt 0.125000 0.125000
vt 0.375000 0.375000
vt 0.125000 0.375000
vt 0.125000 0.625000
vt 0.375000 0.625000
vt 0.375000 0.875000
vt 0.125000 0.875000
vt 0.625000 0.625000
vt 0.875000 0.625000
vt 0.875000 0.875000
vt 0.625000 0.875000
vt 0.125000 0.125000
vt 0.375000 0.125000
vt 0.375000 0.375000
vt 0.125000 0.375000
vt 0.125000 0.125000
vt 0.375000 0.125000
vt 0.375000 0.375000
vt 0.125000 0.375000
vt 0.125000 0.125000
vt 0.375000 0.125000
vt 0.375000 0.375000
vt 0.125000 0.375000
vt 0.125000 0.125000
vt 0.375000 0.375000
vt 0.125000 0.375000
vt 0.375000 0.125000
vt 0.375000 0.375000
vt 0.125000 0.375000
vt 0.625000 0.125000
vt 0.875000 0.125000
vt 0.875000 0.375000
vt 0.625000 0.375000
vt 0.625000 0.625000
vt 0.875000 0.625000
vt 0.875000 0.875000
vt 0.625000 0.875000
vt 0.125000 0.125000
vt 0.375000 0.125000
vt 0.375000 0.375000
vt 0.125000 0.375000
vt 0.125000 0.125000
vt 0.375000 0.375000
vt 0.125000 0.375000
vt 0.125000 0.625000
vt 0.375000 0.625000
vt 0.375000 0.875000
vt 0.125000 0.875000
vt 0.625000 0.125000
vt 0.875000 0.125000
vt 0.875000 0.375000
vt 0.625000 0.375000
vt 0.625000 0.625000
vt 0.875000 0.625000
vt 0.875000 0.875000
vt 0.625000 0.875000
vt 0.375000 0.125000
vt 0.375000 0.375000
vt 0.125000 0.375000
vt 0.625000 0.625000
vt 0.875000 0.625000
vt 0.875000 0.875000
vt 0.625000 0.875000
vt 0.125000 0.625000
vt 0.375000 0.625000
vt 0.375000 0.875000
vt 0.125000 0.875000
vt 0.625000 0.625000
vt 0.875000 0.625000
vt 0.875000 0.875000
vt 0.625000 0.875000
vt 0.125000 0.125000
vt 0.375000 0.125000
vt 0.375000 0.375000
vt 0.125000 0.375000
vt 0.625000 0.625000
vt 0.875000 0.625000
vt 0.875000 0.875000
vt 0.625000 0.875000
vt 0.625000 0.625000
vt 0.875000 0.625000
vt 0.875000 0.875000
vt 0.625000 0.875000
vt 0.875000 0.625000
vt 0.875000 0.875000
vt 0.625000 0.875000
vt 0.625000 0.625000
vt 0.875000 0.875000
vt 0.625000 0.875000
vt 0.125000 0.125000
vt 0.375000 0.125000
vt 0.375000 0.375000
vt 0.125000 0.375000
vt 0.125000 0.125000
vt 0.375000 0.125000
vt 0.375000 0.375000
vt 0.125000 0.375000
vt 0.125000 0.625000
vt 0.375000 0.625000
vt 0.375000 0.875000
vt 0.125000 0.875000
vt 0.625000 0.625000
vt 0.875000 0.625000
vt 0.875000 0.875000
vt 0.625000 0.875000
vt 0.875000 0.625000
vt 0.875000 0.875000
vt 0.625000 0.875000
vt 0.625000 0.125000
vt 0.875000 0.125000
vt 0.875000 0.375000
vt 0.625000 0.375000
vt 0.125000 0.125000
vt 0.375000 0.125000
vt 0.375000 0.375000
vt 0.125000 0.375000
vt 0.125000 0.125000
vt 0.375000 0.125000
vt 0.375000 0.375000
vt 0.125000 0.375000
vt 0.625000 0.625000
vt 0.875000 0.875000
vt 0.625000 0.875000
vt 0.125000 0.625000
vt 0.375000 0.625000
vt 0.375000 0.875000
vt 0.125000 0.875000
vt 0.125000 0.125000
vt 0.375000 0.125000
vt 0.375000 0.375000
vt 0.125000 0.375000
vt 0.625000 0.625000
vt 0.875000 0.625000
vt 0.875000 0.875000
vt 0.625000 0.875000
vt 0.125000 0.125000
vt 0.375000 0.125000
vt 0.375000 0.375000
vt 0.125000 0.375000
vt 0.125000 0.125000
vt 0.375000 0.125000
vt 0.375000 0.375000
vt 0.125000 0.375000
vt 0.625000 0.125000
vt 0.875000 0.125000
vt 0.875000 0.375000
vt 0.625000 0.375000
vt 0.125000 0.125000
vt 0.375000 0.375000
vt 0.125000 0.375000
vt 0.375000 0.125000
vt 0.375000 0.375000
vt 0.125000 0.375000
vt 0.625000 0.625000
vt 0.875000 0.625000
vt 0.875000 0.875000
vt 0.625000 0.875000
vt 0.125000 0.125000
vt 0.375000 0.125000
vt 0.375000 0.375000
vt 0.125000 0.375000
vt 0.125000 0.125000
vt 0.375000 0.375000
vt 0.125000 0.375000
vt 0.125000 0.625000
vt 0.375000 0.625000
vt 0.375000 0.875000
vt 0.125000 0.875000
vt 0.625000 0.625000
vt 0.875000 0.625000
vt 0.875000 0.875000
vt 0.625000 0.875000
vt 0.625000 0.625000
vt 0.875000 0.625000
vt 0.875000 0.875000
vt 0.625000 0.875000
vt 0.375000 0.125000
vt 0.375000 0.375000
vt 0.125000 0.375000
vt 0.625000 0.625000
vt 0.875000 0.625000
vt 0.875000 0.875000
vt 0.625000 0.875000
vt 0.125000 0.625000
vt 0.375000 0.625000
vt 0.375000 0.875000
vt 0.125000 0.875000
vt 0.375000 0.125000
vt 0.375000 0.375000
vt 0.125000 0.375000
vt 0.625000 0.625000
vt 0.875000 0.625000
vt 0.875000 0.875000
vt 0.625000 0.875000
vt 0.125000 0.125000
vt 0.375000 0.125000
vt 0.375000 0.375000
vt 0.125000 0.375000
vt 0.625000 0.625000
vt 0.875000 0.625000
vt 0.625000 0.875000
vt 0.875000 0.625000
vt 0.875000 0.875000
vt 0.625000 0.875000
vn -1.0000 0.0000 0.0000
vn 0.0000 -0.6247 -0.7809
vn 1.0000 0.0000 0.0000
vn 0.0000 0.0000 1.0000
vn 0.0000 -1.0000 0.0000
vn 0.0000 0.0000 -1.0000
vn -0.7809 -0.6247 0.0000
vn 0.0000 1.0000 0.0000
vn 0.7809 0.6247 0.0000
vn 0.0000 -0.6247 0.7809
vn 0.0000 0.6247 -0.7809
vn -0.7809 0.6247 0.0000
vn 0.7809 -0.6247 0.0000
vn 0.0000 0.6247 0.7809
usemtl n64_mat
s off
f 1/1/1 2/2/1 4/3/1 3/4/1
f 7/5/2 3/6/2 59/7/2 57/8/2
f 7/9/3 8/10/3 6/11/3 5/12/3
f 5/13/4 6/14/4 2/15/4 1/16/4
f 3/17/5 7/18/5 5/19/5 1/20/5
f 8/21/6 4/22/6 10/23/6 11/24/6
f 12/25/7 11/26/7 17/27/7 18/28/7
f 6/29/3 8/10/3 11/30/3 12/31/3
f 4/32/1 2/2/1 9/33/1 10/34/1
f 2/35/4 6/14/4 12/36/4 9/37/4
f 15/38/8 14/39/8 13/40/8 16/41/8
f 10/42/1 9/43/1 13/44/1 14/45/1
f 9/46/4 12/47/4 16/48/4 13/49/4
f 11/50/6 10/51/6 14/52/6 15/53/6
f 20/54/4 18/55/4 22/56/4 24/57/4
f 16/58/4 12/47/4 18/59/4 20/60/4
f 11/50/6 15/61/6 19/62/6 17/63/6
f 15/64/9 16/65/9 20/66/9 19/67/9
f 22/68/3 21/69/3 23/70/3 24/71/3
f 23/72/6 19/73/6 25/74/6 27/75/6
f 17/76/6 19/73/6 23/77/6 21/78/6
f 18/79/5 17/80/5 21/81/5 22/82/5
f 27/83/10 25/84/10 34/85/10 33/86/10
f 19/87/1 20/88/1 26/89/1 25/90/1
f 20/54/4 24/91/4 28/92/4 26/93/4
f 24/94/3 23/95/3 27/96/3 28/97/3
f 29/98/8 30/99/8 32/100/8 31/101/8
f 28/102/3 27/103/3 31/104/3 32/105/3
f 26/106/4 28/107/4 32/108/4 30/109/4
f 25/110/1 26/111/1 30/112/1 29/113/1
f 34/114/1 36/115/1 40/116/1 38/117/1
f 25/110/1 29/118/1 36/119/1 34/120/1
f 31/121/3 27/103/3 33/122/3 35/123/3
f 29/124/11 31/125/11 35/126/11 36/127/11
f 37/128/6 38/129/6 40/130/6 39/131/6
f 33/132/5 34/133/5 38/134/5 37/135/5
f 35/136/3 33/137/3 37/138/3 39/139/3
f 35/136/3 39/140/3 43/141/3 41/142/3
f 46/143/12 48/144/12 52/145/12 51/146/12
f 39/147/6 40/148/6 44/149/6 43/150/6
f 36/151/4 35/152/4 41/153/4 42/154/4
f 40/155/1 36/115/1 42/156/1 44/157/1
f 46/158/8 45/159/8 47/160/8 48/161/8
f 42/162/4 41/163/4 45/164/4 46/165/4
f 41/166/3 43/167/3 47/168/3 45/169/3
f 43/170/6 44/171/6 48/172/6 47/173/6
f 52/174/6 50/175/6 54/176/6 56/177/6
f 44/178/13 42/179/13 49/180/13 50/181/13
f 48/182/6 44/171/6 50/183/6 52/184/6
f 42/162/4 46/185/4 51/186/4 49/187/4
f 54/188/1 53/189/1 55/190/1 56/191/1
f 55/192/4 51/193/4 57/194/4 59/195/4
f 49/196/4 51/193/4 55/197/4 53/198/4
f 50/199/5 49/200/5 53/201/5 54/202/5
f 57/203/3 58/204/3 62/205/3 61/206/3
f 51/207/3 52/208/3 58/209/3 57/210/3
f 52/174/6 56/211/6 60/212/6 58/213/6
f 56/214/1 55/215/1 59/216/1 60/217/1
f 61/218/8 62/219/8 64/220/8 63/221/8
f 8/21/14 61/222/14 63/223/14 4/224/14
f 60/225/1 59/226/1 63/227/1 64/228/1
f 58/229/6 60/230/6 64/231/6 62/232/6
f 3/233/1 4/234/1 63/227/1 59/235/1
f 7/9/3 57/236/3 61/237/3 8/238/3
